PathFileType	4	(X/Y/Z)	/Users/itak/Documents/Research/Walk-IL/dataset/trc/00377_00012.trc
DataRate	CameraRate	NumFrames	NumMarkers	Units	OrigDataRate	OrigDataStartFrame	OrigNumFrames
100.000000	100.000000	4	59	mm	100.000000	91	147
Frame#	Time	RPSI			LPSI			L3			STRN			T10			C7			CLAV			RBAK			LBAK			LSHO			LUPA			LAEL			LAOL			LWTS			LWPS			LFRA			LHPS			LHTS			RSHO			RUPA			RAEL			RAOL			RWTS			RWPS			RFRA			RIFD			RHTS			RHPS			RBHD			LFHD			RFHD			LBHD			RHIP			RASI			LASI			LKNE			LTHI			LANK			LTIP			LTOE			LMT1			LMT5			LHEE			RKNE			RTHI			RANK			RTIP			RTOE			RMT1			RMT5			RHEE			LIFD			LHIP			*53			*54			*55			*56			*57			*58			
		X1	Y1	Z1	X2	Y2	Z2	X3	Y3	Z3	X4	Y4	Z4	X5	Y5	Z5	X6	Y6	Z6	X7	Y7	Z7	X8	Y8	Z8	X9	Y9	Z9	X10	Y10	Z10	X11	Y11	Z11	X12	Y12	Z12	X13	Y13	Z13	X14	Y14	Z14	X15	Y15	Z15	X16	Y16	Z16	X17	Y17	Z17	X18	Y18	Z18	X19	Y19	Z19	X20	Y20	Z20	X21	Y21	Z21	X22	Y22	Z22	X23	Y23	Z23	X24	Y24	Z24	X25	Y25	Z25	X26	Y26	Z26	X27	Y27	Z27	X28	Y28	Z28	X29	Y29	Z29	X30	Y30	Z30	X31	Y31	Z31	X32	Y32	Z32	X33	Y33	Z33	X34	Y34	Z34	X35	Y35	Z35	X36	Y36	Z36	X37	Y37	Z37	X38	Y38	Z38	X39	Y39	Z39	X40	Y40	Z40	X41	Y41	Z41	X42	Y42	Z42	X43	Y43	Z43	X44	Y44	Z44	X45	Y45	Z45	X46	Y46	Z46	X47	Y47	Z47	X48	Y48	Z48	X49	Y49	Z49	X50	Y50	Z50	X51	Y51	Z51	X52	Y52	Z52	X53	Y53	Z53	X54	Y54	Z54	X55	Y55	Z55	X56	Y56	Z56	X57	Y57	Z57	X58	Y58	Z58	X59	Y59	Z59	

92	0.91	-341.6136169433594	963.1241455078125	-22.94515800476074	-363.4245300292969	948.4205322265625	-153.6862487792969	-346.5738525390625	1036.713012695312	-92.64600372314453	-121.2392883300781	1186.168823242188	-110.3420028686523	-365.2876281738281	1136.729736328125	-102.1247329711914	-331.9419555664062	1384.82568359375	-110.9060287475586	-176.4077911376953	1304.895751953125	-106.3696517944336	-376.1741943359375	1238.183837890625	-50.40590667724609	-349.2545471191406	1352.344604492188	-215.4824523925781	-260.7224731445312	1367.504150390625	-264.5098876953125	-284.3223266601562	1251.255004882812	-335.4002990722656	-257.7063598632812	1058.569091796875	-368.249755859375	-309.9148559570312	1029.994262695312	-307.0018615722656	-118.1807022094727	876.6669921875	-343.800048828125	-170.2051849365234	850.0831298828125	-401.6145935058594	-222.8334197998047	963.224853515625	-383.3347473144531	-132.39306640625	772.7315063476562	-399.1112670898438	-76.36135101318359	789.5867309570312	-371.8672790527344	-274.9731140136719	1357.369873046875	47.15789031982422	-295.621337890625	1293.492553710938	100.828857421875	-344.8892822265625	1036.315551757812	116.6175689697266	-341.2296447753906	1033.164916992188	21.24750518798828	-258.4782104492188	800.6875610351562	112.866096496582	-318.5382385253906	798.982421875	155.2406921386719	-338.7736511230469	967.8628540039062	134.7232513427734	-297.1916809082031	632.2630615234375	100.1446533203125	-267.988525390625	693.8675537109375	129.7946624755859	-333.2184753417969	710.3939208984375	149.8779602050781	-287.5631103515625	1568.400634765625	-20.31666946411133	-151.1517639160156	1572.003173828125	-164.7939300537109	-156.9150085449219	1574.955322265625	-41.95312118530273	-298.3528442382812	1563.177856445312	-181.9512786865234	-225.2543334960938	963.2869873046875	75.21534729003906	-122.0382308959961	954.4204711914062	-2.886496543884277	-176.9320983886719	924.6454467773438	-258.7192993164062	-265.6991882324219	435.0179138183594	-262.0651550292969	-261.5013122558594	573.5440673828125	-269.09228515625	-647.4907836914062	196.5984191894531	-215.6078643798828	-461.2708740234375	300.1740112304688	-251.412841796875	-541.5450439453125	34.79842376708984	-129.0507202148438	-575.9728393554688	99.70700073242188	-109.2426528930664	-600.1724243164062	77.49710845947266	-210.7947845458984	-656.162353515625	237.7157592773438	-162.4659881591797	-80.91383361816406	475.2989196777344	1.856571316719055	-118.9946975708008	731.7612915039062	53.39528656005859	-117.2456970214844	49.47036361694336	-36.43521499633789	-62.73583984375	348.5319519042969	-20.21319389343262	50.20009231567383	37.95102691650391	-123.298942565918	-26.6906852722168	42.98877334594727	-143.6610107421875	-35.58054733276367	39.45541763305664	-42.04494857788086	-194.8235015869141	42.1756477355957	-80.33563232421875	-66.01456451416016	705.1635131835938	-359.8002624511719	-291.5131530761719	927.20263671875	-282.3597106933594	nan	nan	nan	nan	nan	nan	nan	nan	nan	nan	nan	nan	nan	nan	nan	nan	nan	nan	
93	0.92	-331.1502075195312	964.562255859375	-22.71667289733887	-353.296875	948.7800903320312	-153.3866119384766	-335.382568359375	1038.395385742188	-92.21991729736328	-110.1257095336914	1187.258911132812	-110.8230438232422	-353.4880981445312	1138.1474609375	-101.9796142578125	-320.5035705566406	1386.4375	-110.2811660766602	-165.0517578125	1305.99755859375	-106.5837097167969	-364.6356811523438	1239.921875	-49.01425552368164	-338.3351745605469	1353.8017578125	-214.7987518310547	-249.9000701904297	1368.744750976562	-264.2580871582031	-273.9314575195312	1252.463134765625	-334.965576171875	-248.0686340332031	1059.216430664062	-367.7976684570312	-300.5549011230469	1031.372802734375	-306.5506591796875	-114.4327011108398	872.2449340820312	-342.2072448730469	-166.816162109375	847.8850708007812	-400.5389099121094	-215.3892822265625	962.860107421875	-382.6097412109375	-132.7937927246094	768.8624877929688	-397.4991455078125	-76.16355895996094	783.241943359375	-369.7928161621094	-262.4924926757812	1359.137573242188	47.48929977416992	-282.5914611816406	1295.169921875	101.6638488769531	-329.8909912109375	1037.690063476562	119.2598114013672	-328.3317565917969	1034.246337890625	23.97241973876953	-239.3897094726562	803.7993774414062	114.3984451293945	-298.4472045898438	800.8388671875	157.9895324707031	-322.4880981445312	969.110107421875	137.4043121337891	-273.9596557617188	634.421875	103.4394149780273	-247.2070770263672	696.4020385742188	132.068115234375	-310.995849609375	711.9432373046875	153.356689453125	-276.2007141113281	1569.703735351562	-19.92036247253418	-140.171875	1573.886108398438	-164.725341796875	-145.7009887695312	1576.725463867188	-41.86789321899414	-287.3717956542969	1564.523315429688	-181.5630187988281	-214.6886444091797	964.68408203125	75.32571411132812	-111.2961730957031	955.4440307617188	-2.752958297729492	-166.5104370117188	926.0020141601562	-258.6376342773438	-242.744140625	435.6172790527344	-264.09765625	-242.0635223388672	573.9435424804688	-270.436279296875	-626.7401733398438	201.6637878417969	-216.7914276123047	-439.0967712402344	302.7274169921875	-253.1980590820312	-520.1886596679688	36.25409698486328	-134.6600494384766	-554.4456176757812	102.7601852416992	-112.8330535888672	-579.7758178710938	82.65723419189453	-214.7315216064453	-635.0501098632812	241.904052734375	-163.0147399902344	-76.53050994873047	474.6586303710938	2.848237752914429	-110.7488403320312	732.0364379882812	54.03417587280273	-117.2275390625	49.43877410888672	-36.35280227661133	-59.77143478393555	347.6930541992188	-19.33118438720703	50.16776657104492	38.01146697998047	-123.2425537109375	-26.70858764648438	43.08051681518555	-143.5108032226562	-35.54199600219727	39.29870986938477	-41.87114334106445	-195.0018768310547	42.58239364624023	-80.03377532958984	-69.76952362060547	698.4439086914062	-357.5838317871094	-281.5382385253906	927.8298950195312	-282.1778564453125	nan	nan	nan	nan	nan	nan	nan	nan	nan	nan	nan	nan	nan	nan	nan	nan	nan	nan	
94	0.93	-320.9420166015625	965.984375	-22.67554473876953	-343.2451171875	949.2928466796875	-153.3202362060547	-324.4591369628906	1040.00537109375	-91.98455047607422	-99.142822265625	1188.361694335938	-111.3372344970703	-341.9395751953125	1139.58837890625	-101.9571685791016	-309.181640625	1388.059936523438	-109.7356185913086	-153.8721313476562	1307.08251953125	-106.8569183349609	-353.3009033203125	1241.67626953125	-47.71182632446289	-327.5295104980469	1355.267456054688	-214.1972503662109	-239.1753845214844	1369.954467773438	-264.0943908691406	-263.7371215820312	1253.625854492188	-334.5856323242188	-238.8038635253906	1059.865234375	-367.2799682617188	-291.5273742675781	1032.747802734375	-305.9996337890625	-111.1510925292969	868.1278076171875	-340.5316467285156	-163.7846984863281	845.993896484375	-399.4357299804688	-208.3976287841797	962.5420532226562	-381.8136901855469	-133.4740142822266	765.4999389648438	-395.9696960449219	-76.41680145263672	777.4204711914062	-367.7496948242188	-250.1737670898438	1360.88037109375	47.75601196289062	-269.7196044921875	1296.819458007812	102.4286270141602	-314.9839782714844	1039.043701171875	121.9266891479492	-315.5959777832031	1035.270751953125	26.77172660827637	-220.1920928955078	807.08935546875	115.9764099121094	-278.2002563476562	802.8923950195312	160.7954559326172	-306.2479248046875	970.384521484375	140.1027221679688	-250.3546600341797	636.82763671875	106.986946105957	-225.6804351806641	699.4005126953125	134.5326843261719	-288.4695434570312	713.7401733398438	156.9950866699219	-264.8205871582031	1571.047241210938	-19.58844947814941	-129.1797637939453	1575.677734375	-164.7341613769531	-134.4803314208984	1578.402099609375	-41.85580825805664	-276.3856811523438	1565.893188476562	-181.240478515625	-204.5468139648438	966.0186767578125	75.42504119873047	-100.8186111450195	956.5111694335938	-2.459975719451904	-156.1002197265625	927.4642944335938	-258.4321899414062	-219.7972259521484	436.7275695800781	-266.0392456054688	-222.7677154541016	574.7891235351562	-271.7803649902344	-605.1485595703125	205.5853271484375	-217.4610748291016	-416.5099182128906	305.1954956054688	-254.7197570800781	-496.3492126464844	38.03457260131836	-140.8219299316406	-530.9238891601562	104.9902191162109	-116.6091995239258	-557.350341796875	87.31837463378906	-218.8085784912109	-613.2811279296875	244.7203521728516	-162.9046173095703	-72.59514617919922	474.0181884765625	3.893829822540283	-102.8855514526367	732.2548217773438	54.70370483398438	-117.215950012207	49.39933395385742	-36.27479553222656	-57.10715103149414	346.8927307128906	-18.4405689239502	50.15564727783203	38.06847763061523	-123.1597290039062	-26.72237205505371	43.172607421875	-143.3468322753906	-35.48151779174805	39.14094924926758	-41.68601989746094	-195.1508941650391	42.87561416625977	-79.82338714599609	-73.82326507568359	692.4194946289062	-355.5571899414062	-271.3872680664062	928.5490112304688	-282.0081787109375	nan	nan	nan	nan	nan	nan	nan	nan	nan	nan	nan	nan	nan	nan	nan	nan	nan	nan	
95	0.9400000000000001	-310.9540405273438	967.3953247070312	-22.8376293182373	-333.20263671875	950.0009765625	-153.5010375976562	-313.8164672851562	1041.525390625	-91.95205688476562	-88.28318786621094	1189.519165039062	-111.838737487793	-330.6539001464844	1141.059936523438	-102.0246429443359	-297.9884948730469	1389.69287109375	-109.2799072265625	-142.8683166503906	1308.203369140625	-107.1621704101562	-342.1515197753906	1243.433471679688	-46.53756713867188	-316.8298950195312	1356.74609375	-213.6849060058594	-228.5522766113281	1371.154052734375	-264.016357421875	-253.7314147949219	1254.779418945312	-334.2709655761719	-229.936767578125	1060.569580078125	-366.6842041015625	-282.8824157714844	1034.170776367188	-305.3517761230469	-108.2970962524414	864.3665771484375	-338.7756958007812	-161.0825500488281	844.4222412109375	-398.2888793945312	-201.8673706054688	962.3104858398438	-380.9574279785156	-134.3150787353516	762.6566772460938	-394.5164184570312	-77.03264617919922	772.1714477539062	-365.7149658203125	-238.05517578125	1362.610595703125	47.95992279052734	-257.0559387207031	1298.45947265625	103.1110992431641	-300.2196960449219	1040.398559570312	124.5698089599609	-302.9833068847656	1036.266845703125	29.5884952545166	-200.9237213134766	810.5855712890625	117.6025009155273	-257.8623657226562	805.18115234375	163.6273651123047	-290.1002197265625	971.71630859375	142.7771301269531	-226.4331207275391	639.5283203125	110.7592544555664	-203.5523376464844	702.8722534179688	137.1745147705078	-265.7163696289062	715.8340454101562	160.7549896240234	-253.4357757568359	1572.446533203125	-19.32809448242188	-118.1731414794922	1577.377197265625	-164.81689453125	-123.2502212524414	1579.988037109375	-41.91663360595703	-265.396484375	1567.309326171875	-180.9843292236328	-194.8008575439453	967.2853393554688	75.54111480712891	-90.59783172607422	957.6287841796875	-1.955559015274048	-145.6380004882812	929.0658569335938	-258.0614318847656	-196.9434661865234	438.3690795898438	-267.8645324707031	-203.6764068603516	576.0885009765625	-273.1095275878906	-582.7169799804688	208.3265991210938	-217.7446594238281	-393.5560302734375	307.4889526367188	-255.9969024658203	-470.3879089355469	39.9154052734375	-147.3428192138672	-505.69189453125	106.3359069824219	-120.4992446899414	-533.1412963867188	91.3096923828125	-222.9351348876953	-590.8236083984375	246.1492156982422	-162.2972106933594	-69.05356597900391	473.3917846679688	4.93667459487915	-95.3603515625	732.397705078125	55.40051651000977	-117.2144546508789	49.35086441040039	-36.2054328918457	-54.71108245849609	346.1387023925781	-17.5844669342041	50.16633987426758	38.12268447875977	-123.0590744018555	-26.72851181030273	43.26151657104492	-143.1818389892578	-35.39995574951172	38.99847793579102	-41.49963760375977	-195.2758331298828	43.07379150390625	-79.69348907470703	-78.08554840087891	687.12548828125	-353.6852416992188	-260.9334411621094	929.3850708007812	-281.8265991210938	nan	nan	nan	nan	nan	nan	nan	nan	nan	nan	nan	nan	nan	nan	nan	nan	nan	nan	
